<svg width="168" height="106" viewBox="0 0 168 106" fill="none" xmlns="http://www.w3.org/2000/svg">
<rect x="153.36" y="28.7979" width="0.918683" height="0.918683" transform="rotate(90 153.36 28.7979)" fill="#F2F2F2"/>
<rect x="155.197" y="3.07479" width="0.918683" height="0.918683" transform="rotate(90 155.197 3.07479)" fill="#F2F2F2"/>
<rect x="151.522" y="39.8221" width="0.918683" height="0.918683" transform="rotate(90 151.522 39.8221)" fill="#F2F2F2"/>
<rect x="153.36" y="14.099" width="0.918683" height="0.918683" transform="rotate(90 153.36 14.099)" fill="#F2F2F2"/>
<rect x="151.522" y="25.1231" width="0.918683" height="0.918683" transform="rotate(90 151.522 25.1231)" fill="#F2F2F2"/>
<rect x="149.685" y="36.1474" width="0.918683" height="0.918683" transform="rotate(90 149.685 36.1474)" fill="#F2F2F2"/>
<rect x="151.522" y="10.4242" width="0.918683" height="0.918683" transform="rotate(90 151.522 10.4242)" fill="#F2F2F2"/>
<rect x="147.848" y="47.1716" width="0.918683" height="0.918683" transform="rotate(90 147.848 47.1716)" fill="#F2F2F2"/>
<rect x="149.685" y="21.4485" width="0.918683" height="0.918683" transform="rotate(90 149.685 21.4485)" fill="#F2F2F2"/>
<rect x="125.799" y="47.1716" width="0.918683" height="0.918683" transform="rotate(90 125.799 47.1716)" fill="#F2F2F2"/>
<rect x="127.637" y="21.4485" width="0.918683" height="0.918683" transform="rotate(90 127.637 21.4485)" fill="#F2F2F2"/>
<rect x="101.914" y="72.8947" width="0.918683" height="0.918683" transform="rotate(90 101.914 72.8947)" fill="#F2F2F2"/>
<rect x="88.1333" y="46.2528" width="0.918683" height="0.918683" transform="rotate(90 88.1333 46.2528)" fill="#F2F2F2"/>
<rect x="150.604" y="11.343" width="0.918683" height="0.918683" transform="rotate(90 150.604 11.343)" fill="#F2F2F2"/>
<rect x="149.685" y="27.8792" width="0.918683" height="0.918683" transform="rotate(90 149.685 27.8792)" fill="#F2F2F2"/>
<rect x="135.905" y="1.23747" width="0.918683" height="0.918683" transform="rotate(90 135.905 1.23747)" fill="#F2F2F2"/>
<rect x="103.751" y="47.1716" width="0.918683" height="0.918683" transform="rotate(90 103.751 47.1716)" fill="#F2F2F2"/>
<rect x="89.9705" y="20.5297" width="0.918683" height="0.918683" transform="rotate(90 89.9705 20.5297)" fill="#F2F2F2"/>
<rect x="140.498" y="35.2286" width="0.918683" height="0.918683" transform="rotate(90 140.498 35.2286)" fill="#F2F2F2"/>
<rect x="151.522" y="2.15604" width="0.918683" height="0.918683" transform="rotate(90 151.522 2.15604)" fill="#F2F2F2"/>
<rect x="105.588" y="21.4485" width="0.918683" height="0.918683" transform="rotate(90 105.588 21.4485)" fill="#F2F2F2"/>
<rect x="156.116" y="36.1474" width="0.918683" height="0.918683" transform="rotate(90 156.116 36.1474)" fill="#F2F2F2"/>
<rect x="142.336" y="9.50549" width="0.918683" height="0.918683" transform="rotate(90 142.336 9.50549)" fill="#F2F2F2"/>
<rect x="140.498" y="26.0418" width="0.918683" height="0.918683" transform="rotate(90 140.498 26.0418)" fill="#F2F2F2"/>
<rect x="139.58" y="42.5782" width="0.918683" height="0.918683" transform="rotate(90 139.58 42.5782)" fill="#F2F2F2"/>
<rect x="157.953" y="10.4242" width="0.918683" height="0.918683" transform="rotate(90 157.953 10.4242)" fill="#F2F2F2"/>
<rect x="156.116" y="26.9604" width="0.918683" height="0.918683" transform="rotate(90 156.116 26.9604)" fill="#F2F2F2"/>
<rect x="155.197" y="43.4968" width="0.918683" height="0.918683" transform="rotate(90 155.197 43.4968)" fill="#F2F2F2"/>
<rect x="142.336" y="0.318726" width="0.918683" height="0.918683" transform="rotate(90 142.336 0.318726)" fill="#F2F2F2"/>
<rect x="141.417" y="16.8551" width="0.918683" height="0.918683" transform="rotate(90 141.417 16.8551)" fill="#F2F2F2"/>
<rect x="79.865" y="72.8947" width="0.918683" height="0.918683" transform="rotate(90 79.865 72.8947)" fill="#F2F2F2"/>
<rect x="66.085" y="46.2528" width="0.918683" height="0.918683" transform="rotate(90 66.085 46.2528)" fill="#F2F2F2"/>
<rect x="160.709" y="25.1231" width="0.918683" height="0.918683" transform="rotate(90 160.709 25.1231)" fill="#F2F2F2"/>
<rect x="128.555" y="11.343" width="0.918683" height="0.918683" transform="rotate(90 128.555 11.343)" fill="#F2F2F2"/>
<rect x="127.637" y="27.8792" width="0.918683" height="0.918683" transform="rotate(90 127.637 27.8792)" fill="#F2F2F2"/>
<rect x="113.856" y="1.23747" width="0.918683" height="0.918683" transform="rotate(90 113.856 1.23747)" fill="#F2F2F2"/>
<rect x="81.7024" y="47.1716" width="0.918683" height="0.918683" transform="rotate(90 81.7024 47.1716)" fill="#F2F2F2"/>
<rect x="67.9224" y="20.5297" width="0.918683" height="0.918683" transform="rotate(90 67.9224 20.5297)" fill="#F2F2F2"/>
<rect x="118.45" y="35.2286" width="0.918683" height="0.918683" transform="rotate(90 118.45 35.2286)" fill="#F2F2F2"/>
<rect x="129.474" y="2.15604" width="0.918683" height="0.918683" transform="rotate(90 129.474 2.15604)" fill="#F2F2F2"/>
<rect x="83.5398" y="21.4485" width="0.918683" height="0.918683" transform="rotate(90 83.5398 21.4485)" fill="#F2F2F2"/>
<rect x="134.067" y="36.1474" width="0.918683" height="0.918683" transform="rotate(90 134.067 36.1474)" fill="#F2F2F2"/>
<rect x="120.287" y="9.50549" width="0.918683" height="0.918683" transform="rotate(90 120.287 9.50549)" fill="#F2F2F2"/>
<rect x="118.45" y="26.0418" width="0.918683" height="0.918683" transform="rotate(90 118.45 26.0418)" fill="#F2F2F2"/>
<rect x="117.531" y="42.5782" width="0.918683" height="0.918683" transform="rotate(90 117.531 42.5782)" fill="#F2F2F2"/>
<rect x="135.905" y="10.4242" width="0.918683" height="0.918683" transform="rotate(90 135.905 10.4242)" fill="#F2F2F2"/>
<rect x="134.067" y="26.9604" width="0.918683" height="0.918683" transform="rotate(90 134.067 26.9604)" fill="#F2F2F2"/>
<rect x="133.149" y="43.4968" width="0.918683" height="0.918683" transform="rotate(90 133.149 43.4968)" fill="#F2F2F2"/>
<rect x="120.287" y="0.318726" width="0.918683" height="0.918683" transform="rotate(90 120.287 0.318726)" fill="#F2F2F2"/>
<rect x="119.369" y="16.8551" width="0.918683" height="0.918683" transform="rotate(90 119.369 16.8551)" fill="#F2F2F2"/>
<rect x="81.7024" y="61.8705" width="0.918683" height="0.918683" transform="rotate(90 81.7024 61.8705)" fill="#F2F2F2"/>
<rect x="67.9224" y="35.2286" width="0.918683" height="0.918683" transform="rotate(90 67.9224 35.2286)" fill="#F2F2F2"/>
<rect x="162.546" y="14.099" width="0.918683" height="0.918683" transform="rotate(90 162.546 14.099)" fill="#F2F2F2"/>
<rect x="130.393" y="0.318726" width="0.918683" height="0.918683" transform="rotate(90 130.393 0.318726)" fill="#F2F2F2"/>
<rect x="129.474" y="16.8551" width="0.918683" height="0.918683" transform="rotate(90 129.474 16.8551)" fill="#F2F2F2"/>
<rect x="83.5398" y="36.1474" width="0.918683" height="0.918683" transform="rotate(90 83.5398 36.1474)" fill="#F2F2F2"/>
<rect x="69.7595" y="9.50549" width="0.918683" height="0.918683" transform="rotate(90 69.7595 9.50549)" fill="#F2F2F2"/>
<rect x="120.287" y="24.2045" width="0.918683" height="0.918683" transform="rotate(90 120.287 24.2045)" fill="#F2F2F2"/>
<rect x="118.45" y="40.7407" width="0.918683" height="0.918683" transform="rotate(90 118.45 40.7407)" fill="#F2F2F2"/>
<rect x="85.3772" y="10.4242" width="0.918683" height="0.918683" transform="rotate(90 85.3772 10.4242)" fill="#F2F2F2"/>
<rect x="135.905" y="25.1231" width="0.918683" height="0.918683" transform="rotate(90 135.905 25.1231)" fill="#F2F2F2"/>
<rect x="134.067" y="41.6595" width="0.918683" height="0.918683" transform="rotate(90 134.067 41.6595)" fill="#F2F2F2"/>
<rect x="120.287" y="15.0176" width="0.918683" height="0.918683" transform="rotate(90 120.287 15.0176)" fill="#F2F2F2"/>
<rect x="119.369" y="31.554" width="0.918683" height="0.918683" transform="rotate(90 119.369 31.554)" fill="#F2F2F2"/>
<rect x="135.905" y="15.9363" width="0.918683" height="0.918683" transform="rotate(90 135.905 15.9363)" fill="#F2F2F2"/>
<rect x="134.986" y="32.4725" width="0.918683" height="0.918683" transform="rotate(90 134.986 32.4725)" fill="#F2F2F2"/>
<rect x="121.206" y="5.83085" width="0.918683" height="0.918683" transform="rotate(90 121.206 5.83085)" fill="#F2F2F2"/>
<rect x="81.7024" y="76.5694" width="0.918683" height="0.918683" transform="rotate(90 81.7024 76.5694)" fill="#F2F2F2"/>
<rect x="67.9224" y="49.9275" width="0.918683" height="0.918683" transform="rotate(90 67.9224 49.9275)" fill="#F2F2F2"/>
<rect x="162.546" y="28.7979" width="0.918683" height="0.918683" transform="rotate(90 162.546 28.7979)" fill="#F2F2F2"/>
<rect x="130.393" y="15.0176" width="0.918683" height="0.918683" transform="rotate(90 130.393 15.0176)" fill="#F2F2F2"/>
<rect x="129.474" y="31.554" width="0.918683" height="0.918683" transform="rotate(90 129.474 31.554)" fill="#F2F2F2"/>
<rect x="115.694" y="4.9121" width="0.918683" height="0.918683" transform="rotate(90 115.694 4.9121)" fill="#F2F2F2"/>
<rect x="83.5398" y="50.8462" width="0.918683" height="0.918683" transform="rotate(90 83.5398 50.8462)" fill="#F2F2F2"/>
<rect x="69.7595" y="24.2045" width="0.918683" height="0.918683" transform="rotate(90 69.7595 24.2045)" fill="#F2F2F2"/>
<rect x="120.287" y="38.9034" width="0.918683" height="0.918683" transform="rotate(90 120.287 38.9034)" fill="#F2F2F2"/>
<rect x="164.384" y="3.07479" width="0.918683" height="0.918683" transform="rotate(90 164.384 3.07479)" fill="#F2F2F2"/>
<rect x="131.311" y="5.83085" width="0.918683" height="0.918683" transform="rotate(90 131.311 5.83085)" fill="#F2F2F2"/>
<rect x="85.3772" y="25.1231" width="0.918683" height="0.918683" transform="rotate(90 85.3772 25.1231)" fill="#F2F2F2"/>
<rect x="135.905" y="39.8221" width="0.918683" height="0.918683" transform="rotate(90 135.905 39.8221)" fill="#F2F2F2"/>
<rect x="122.125" y="13.1803" width="0.918683" height="0.918683" transform="rotate(90 122.125 13.1803)" fill="#F2F2F2"/>
<rect x="120.287" y="29.7165" width="0.918683" height="0.918683" transform="rotate(90 120.287 29.7165)" fill="#F2F2F2"/>
<rect x="119.369" y="46.2528" width="0.918683" height="0.918683" transform="rotate(90 119.369 46.2528)" fill="#F2F2F2"/>
<rect x="137.742" y="14.099" width="0.918683" height="0.918683" transform="rotate(90 137.742 14.099)" fill="#F2F2F2"/>
<rect x="135.905" y="30.6352" width="0.918683" height="0.918683" transform="rotate(90 135.905 30.6352)" fill="#F2F2F2"/>
<rect x="134.986" y="47.1716" width="0.918683" height="0.918683" transform="rotate(90 134.986 47.1716)" fill="#F2F2F2"/>
<rect x="122.125" y="3.99336" width="0.918683" height="0.918683" transform="rotate(90 122.125 3.99336)" fill="#F2F2F2"/>
<rect x="121.206" y="20.5297" width="0.918683" height="0.918683" transform="rotate(90 121.206 20.5297)" fill="#F2F2F2"/>
<rect x="83.5398" y="65.5453" width="0.918683" height="0.918683" transform="rotate(90 83.5398 65.5453)" fill="#F2F2F2"/>
<rect x="69.7595" y="38.9034" width="0.918683" height="0.918683" transform="rotate(90 69.7595 38.9034)" fill="#F2F2F2"/>
<rect x="164.384" y="17.7737" width="0.918683" height="0.918683" transform="rotate(90 164.384 17.7737)" fill="#F2F2F2"/>
<rect x="132.23" y="3.99336" width="0.918683" height="0.918683" transform="rotate(90 132.23 3.99336)" fill="#F2F2F2"/>
<rect x="131.311" y="20.5297" width="0.918683" height="0.918683" transform="rotate(90 131.311 20.5297)" fill="#F2F2F2"/>
<rect x="85.3772" y="39.8221" width="0.918683" height="0.918683" transform="rotate(90 85.3772 39.8221)" fill="#F2F2F2"/>
<rect x="71.5969" y="13.1803" width="0.918683" height="0.918683" transform="rotate(90 71.5969 13.1803)" fill="#F2F2F2"/>
<rect x="122.125" y="27.8792" width="0.918683" height="0.918683" transform="rotate(90 122.125 27.8792)" fill="#F2F2F2"/>
<rect x="120.287" y="44.4155" width="0.918683" height="0.918683" transform="rotate(90 120.287 44.4155)" fill="#F2F2F2"/>
<rect x="87.2146" y="14.099" width="0.918683" height="0.918683" transform="rotate(90 87.2146 14.099)" fill="#F2F2F2"/>
<rect x="137.742" y="28.7979" width="0.918683" height="0.918683" transform="rotate(90 137.742 28.7979)" fill="#F2F2F2"/>
<rect x="135.905" y="45.3343" width="0.918683" height="0.918683" transform="rotate(90 135.905 45.3343)" fill="#F2F2F2"/>
<rect x="123.962" y="2.15604" width="0.918683" height="0.918683" transform="rotate(90 123.962 2.15604)" fill="#F2F2F2"/>
<rect x="122.125" y="18.6924" width="0.918683" height="0.918683" transform="rotate(90 122.125 18.6924)" fill="#F2F2F2"/>
<rect x="121.206" y="35.2286" width="0.918683" height="0.918683" transform="rotate(90 121.206 35.2286)" fill="#F2F2F2"/>
<rect x="144.173" y="21.4485" width="0.918683" height="0.918683" transform="rotate(90 144.173 21.4485)" fill="#F2F2F2"/>
<rect x="139.58" y="3.07479" width="0.918683" height="0.918683" transform="rotate(90 139.58 3.07479)" fill="#F2F2F2"/>
<rect x="137.742" y="19.6112" width="0.918683" height="0.918683" transform="rotate(90 137.742 19.6112)" fill="#F2F2F2"/>
<rect x="136.823" y="36.1474" width="0.918683" height="0.918683" transform="rotate(90 136.823 36.1474)" fill="#F2F2F2"/>
<rect x="123.043" y="9.50549" width="0.918683" height="0.918683" transform="rotate(90 123.043 9.50549)" fill="#F2F2F2"/>
<rect x="85.3772" y="54.521" width="0.918683" height="0.918683" transform="rotate(90 85.3772 54.521)" fill="#F2F2F2"/>
<rect x="71.5969" y="27.8792" width="0.918683" height="0.918683" transform="rotate(90 71.5969 27.8792)" fill="#F2F2F2"/>
<rect x="122.125" y="42.5782" width="0.918683" height="0.918683" transform="rotate(90 122.125 42.5782)" fill="#F2F2F2"/>
<rect x="166.221" y="6.74942" width="0.918683" height="0.918683" transform="rotate(90 166.221 6.74942)" fill="#F2F2F2"/>
<rect x="133.149" y="9.50549" width="0.918683" height="0.918683" transform="rotate(90 133.149 9.50549)" fill="#F2F2F2"/>
<rect x="87.2146" y="28.7979" width="0.918683" height="0.918683" transform="rotate(90 87.2146 28.7979)" fill="#F2F2F2"/>
<rect x="137.742" y="43.4968" width="0.918683" height="0.918683" transform="rotate(90 137.742 43.4968)" fill="#F2F2F2"/>
<rect x="73.4343" y="2.15604" width="0.918683" height="0.918683" transform="rotate(90 73.4343 2.15604)" fill="#F2F2F2"/>
<rect x="123.962" y="16.8551" width="0.918683" height="0.918683" transform="rotate(90 123.962 16.8551)" fill="#F2F2F2"/>
<rect x="122.125" y="33.3913" width="0.918683" height="0.918683" transform="rotate(90 122.125 33.3913)" fill="#F2F2F2"/>
<rect x="89.052" y="3.07479" width="0.918683" height="0.918683" transform="rotate(90 89.052 3.07479)" fill="#F2F2F2"/>
<rect x="139.58" y="17.7737" width="0.918683" height="0.918683" transform="rotate(90 139.58 17.7737)" fill="#F2F2F2"/>
<rect x="137.742" y="34.31" width="0.918683" height="0.918683" transform="rotate(90 137.742 34.31)" fill="#F2F2F2"/>
<rect x="123.962" y="7.66817" width="0.918683" height="0.918683" transform="rotate(90 123.962 7.66817)" fill="#F2F2F2"/>
<rect x="123.043" y="24.2045" width="0.918683" height="0.918683" transform="rotate(90 123.043 24.2045)" fill="#F2F2F2"/>
<rect x="93.6455" y="27.8792" width="0.918683" height="0.918683" transform="rotate(90 93.6455 27.8792)" fill="#F2F2F2"/>
<rect x="144.173" y="42.5782" width="0.918683" height="0.918683" transform="rotate(90 144.173 42.5782)" fill="#F2F2F2"/>
<rect x="155.197" y="9.50549" width="0.918683" height="0.918683" transform="rotate(90 155.197 9.50549)" fill="#F2F2F2"/>
<rect x="109.263" y="28.7979" width="0.918683" height="0.918683" transform="rotate(90 109.263 28.7979)" fill="#F2F2F2"/>
<rect x="159.791" y="43.4968" width="0.918683" height="0.918683" transform="rotate(90 159.791 43.4968)" fill="#F2F2F2"/>
<rect x="95.4827" y="2.15604" width="0.918683" height="0.918683" transform="rotate(90 95.4827 2.15604)" fill="#F2F2F2"/>
<rect x="146.01" y="16.8551" width="0.918683" height="0.918683" transform="rotate(90 146.01 16.8551)" fill="#F2F2F2"/>
<rect x="144.173" y="33.3913" width="0.918683" height="0.918683" transform="rotate(90 144.173 33.3913)" fill="#F2F2F2"/>
<rect x="111.1" y="3.07479" width="0.918683" height="0.918683" transform="rotate(90 111.1 3.07479)" fill="#F2F2F2"/>
<rect x="161.628" y="17.7737" width="0.918683" height="0.918683" transform="rotate(90 161.628 17.7737)" fill="#F2F2F2"/>
<rect x="159.791" y="34.31" width="0.918683" height="0.918683" transform="rotate(90 159.791 34.31)" fill="#F2F2F2"/>
<rect x="146.01" y="7.66817" width="0.918683" height="0.918683" transform="rotate(90 146.01 7.66817)" fill="#F2F2F2"/>
<rect x="145.092" y="24.2045" width="0.918683" height="0.918683" transform="rotate(90 145.092 24.2045)" fill="#F2F2F2"/>
<rect x="129.474" y="39.8221" width="0.918683" height="0.918683" transform="rotate(90 129.474 39.8221)" fill="#F2F2F2"/>
<rect x="131.311" y="14.099" width="0.918683" height="0.918683" transform="rotate(90 131.311 14.099)" fill="#F2F2F2"/>
<rect x="129.474" y="25.1231" width="0.918683" height="0.918683" transform="rotate(90 129.474 25.1231)" fill="#F2F2F2"/>
<rect x="127.637" y="36.1474" width="0.918683" height="0.918683" transform="rotate(90 127.637 36.1474)" fill="#F2F2F2"/>
<rect x="129.474" y="10.4242" width="0.918683" height="0.918683" transform="rotate(90 129.474 10.4242)" fill="#F2F2F2"/>
<rect x="148.766" y="23.2858" width="0.918683" height="0.918683" transform="rotate(90 148.766 23.2858)" fill="#F2F2F2"/>
<rect x="64.2473" y="45.3343" width="0.918683" height="0.918683" transform="rotate(90 64.2473 45.3343)" fill="#F2F2F2"/>
<rect x="146.929" y="34.31" width="0.918683" height="0.918683" transform="rotate(90 146.929 34.31)" fill="#F2F2F2"/>
<rect x="62.4102" y="56.3584" width="0.918683" height="0.918683" transform="rotate(90 62.4102 56.3584)" fill="#F2F2F2"/>
<rect x="148.766" y="8.58691" width="0.918683" height="0.918683" transform="rotate(90 148.766 8.58691)" fill="#F2F2F2"/>
<rect x="64.2473" y="30.6352" width="0.918683" height="0.918683" transform="rotate(90 64.2473 30.6352)" fill="#F2F2F2"/>
<rect x="114.775" y="45.3343" width="0.918683" height="0.918683" transform="rotate(90 114.775 45.3343)" fill="#F2F2F2"/>
<rect x="145.092" y="45.3343" width="0.918683" height="0.918683" transform="rotate(90 145.092 45.3343)" fill="#F2F2F2"/>
<rect x="146.929" y="19.6112" width="0.918683" height="0.918683" transform="rotate(90 146.929 19.6112)" fill="#F2F2F2"/>
<rect x="62.4102" y="41.6595" width="0.918683" height="0.918683" transform="rotate(90 62.4102 41.6595)" fill="#F2F2F2"/>
<rect x="145.092" y="30.6352" width="0.918683" height="0.918683" transform="rotate(90 145.092 30.6352)" fill="#F2F2F2"/>
<rect x="60.5728" y="52.6835" width="0.918683" height="0.918683" transform="rotate(90 60.5728 52.6835)" fill="#F2F2F2"/>
<rect x="146.929" y="4.9121" width="0.918683" height="0.918683" transform="rotate(90 146.929 4.9121)" fill="#F2F2F2"/>
<rect x="143.254" y="41.6595" width="0.918683" height="0.918683" transform="rotate(90 143.254 41.6595)" fill="#F2F2F2"/>
<rect x="145.092" y="15.9363" width="0.918683" height="0.918683" transform="rotate(90 145.092 15.9363)" fill="#F2F2F2"/>
<rect x="60.5728" y="37.9847" width="0.918683" height="0.918683" transform="rotate(90 60.5728 37.9847)" fill="#F2F2F2"/>
<rect x="121.206" y="41.6595" width="0.918683" height="0.918683" transform="rotate(90 121.206 41.6595)" fill="#F2F2F2"/>
<rect x="123.043" y="15.9363" width="0.918683" height="0.918683" transform="rotate(90 123.043 15.9363)" fill="#F2F2F2"/>
<rect x="38.5242" y="37.9847" width="0.918683" height="0.918683" transform="rotate(90 38.5242 37.9847)" fill="#F2F2F2"/>
<rect x="89.052" y="52.6835" width="0.918683" height="0.918683" transform="rotate(90 89.052 52.6835)" fill="#F2F2F2"/>
<rect x="87.2146" y="69.2199" width="0.918683" height="0.918683" transform="rotate(90 87.2146 69.2199)" fill="#F2F2F2"/>
<rect x="86.2959" y="85.7563" width="0.918683" height="0.918683" transform="rotate(90 86.2959 85.7563)" fill="#F2F2F2"/>
<rect x="99.1575" y="41.6595" width="0.918683" height="0.918683" transform="rotate(90 99.1575 41.6595)" fill="#F2F2F2"/>
<rect x="85.3772" y="15.0176" width="0.918683" height="0.918683" transform="rotate(90 85.3772 15.0176)" fill="#F2F2F2"/>
<rect x="135.905" y="29.7165" width="0.918683" height="0.918683" transform="rotate(90 135.905 29.7165)" fill="#F2F2F2"/>
<rect x="134.067" y="46.2528" width="0.918683" height="0.918683" transform="rotate(90 134.067 46.2528)" fill="#F2F2F2"/>
<rect x="100.995" y="15.9363" width="0.918683" height="0.918683" transform="rotate(90 100.995 15.9363)" fill="#F2F2F2"/>
<rect x="151.522" y="30.6352" width="0.918683" height="0.918683" transform="rotate(90 151.522 30.6352)" fill="#F2F2F2"/>
<rect x="149.685" y="47.1716" width="0.918683" height="0.918683" transform="rotate(90 149.685 47.1716)" fill="#F2F2F2"/>
<rect x="137.742" y="3.99336" width="0.918683" height="0.918683" transform="rotate(90 137.742 3.99336)" fill="#F2F2F2"/>
<rect x="135.905" y="20.5297" width="0.918683" height="0.918683" transform="rotate(90 135.905 20.5297)" fill="#F2F2F2"/>
<rect x="134.986" y="37.0661" width="0.918683" height="0.918683" transform="rotate(90 134.986 37.0661)" fill="#F2F2F2"/>
<rect x="153.36" y="4.9121" width="0.918683" height="0.918683" transform="rotate(90 153.36 4.9121)" fill="#F2F2F2"/>
<rect x="151.522" y="21.4485" width="0.918683" height="0.918683" transform="rotate(90 151.522 21.4485)" fill="#F2F2F2"/>
<rect x="150.604" y="37.9847" width="0.918683" height="0.918683" transform="rotate(90 150.604 37.9847)" fill="#F2F2F2"/>
<rect x="136.823" y="11.343" width="0.918683" height="0.918683" transform="rotate(90 136.823 11.343)" fill="#F2F2F2"/>
<rect x="161.628" y="19.6112" width="0.918683" height="0.918683" transform="rotate(90 161.628 19.6112)" fill="#F2F2F2"/>
<rect x="77.1089" y="41.6595" width="0.918683" height="0.918683" transform="rotate(90 77.1089 41.6595)" fill="#F2F2F2"/>
<rect x="63.3289" y="15.0176" width="0.918683" height="0.918683" transform="rotate(90 63.3289 15.0176)" fill="#F2F2F2"/>
<rect x="113.856" y="29.7165" width="0.918683" height="0.918683" transform="rotate(90 113.856 29.7165)" fill="#F2F2F2"/>
<rect x="112.019" y="46.2528" width="0.918683" height="0.918683" transform="rotate(90 112.019 46.2528)" fill="#F2F2F2"/>
<rect x="78.9463" y="15.9363" width="0.918683" height="0.918683" transform="rotate(90 78.9463 15.9363)" fill="#F2F2F2"/>
<rect x="129.474" y="30.6352" width="0.918683" height="0.918683" transform="rotate(90 129.474 30.6352)" fill="#F2F2F2"/>
<rect x="127.637" y="47.1716" width="0.918683" height="0.918683" transform="rotate(90 127.637 47.1716)" fill="#F2F2F2"/>
<rect x="115.694" y="3.99336" width="0.918683" height="0.918683" transform="rotate(90 115.694 3.99336)" fill="#F2F2F2"/>
<rect x="113.856" y="20.5297" width="0.918683" height="0.918683" transform="rotate(90 113.856 20.5297)" fill="#F2F2F2"/>
<rect x="112.938" y="37.0661" width="0.918683" height="0.918683" transform="rotate(90 112.938 37.0661)" fill="#F2F2F2"/>
<rect x="131.311" y="4.9121" width="0.918683" height="0.918683" transform="rotate(90 131.311 4.9121)" fill="#F2F2F2"/>
<rect x="129.474" y="21.4485" width="0.918683" height="0.918683" transform="rotate(90 129.474 21.4485)" fill="#F2F2F2"/>
<rect x="128.555" y="37.9847" width="0.918683" height="0.918683" transform="rotate(90 128.555 37.9847)" fill="#F2F2F2"/>
<rect x="114.775" y="11.343" width="0.918683" height="0.918683" transform="rotate(90 114.775 11.343)" fill="#F2F2F2"/>
<rect x="77.1089" y="56.3584" width="0.918683" height="0.918683" transform="rotate(90 77.1089 56.3584)" fill="#F2F2F2"/>
<rect x="63.3289" y="29.7165" width="0.918683" height="0.918683" transform="rotate(90 63.3289 29.7165)" fill="#F2F2F2"/>
<rect x="113.856" y="44.4155" width="0.918683" height="0.918683" transform="rotate(90 113.856 44.4155)" fill="#F2F2F2"/>
<rect x="163.465" y="8.58691" width="0.918683" height="0.918683" transform="rotate(90 163.465 8.58691)" fill="#F2F2F2"/>
<rect x="78.9463" y="30.6352" width="0.918683" height="0.918683" transform="rotate(90 78.9463 30.6352)" fill="#F2F2F2"/>
<rect x="129.474" y="45.3343" width="0.918683" height="0.918683" transform="rotate(90 129.474 45.3343)" fill="#F2F2F2"/>
<rect x="65.1663" y="3.99336" width="0.918683" height="0.918683" transform="rotate(90 65.1663 3.99336)" fill="#F2F2F2"/>
<rect x="115.694" y="18.6924" width="0.918683" height="0.918683" transform="rotate(90 115.694 18.6924)" fill="#F2F2F2"/>
<rect x="113.856" y="35.2286" width="0.918683" height="0.918683" transform="rotate(90 113.856 35.2286)" fill="#F2F2F2"/>
<rect x="80.7839" y="4.9121" width="0.918683" height="0.918683" transform="rotate(90 80.7839 4.9121)" fill="#F2F2F2"/>
<rect x="131.311" y="19.6112" width="0.918683" height="0.918683" transform="rotate(90 131.311 19.6112)" fill="#F2F2F2"/>
<rect x="129.474" y="36.1474" width="0.918683" height="0.918683" transform="rotate(90 129.474 36.1474)" fill="#F2F2F2"/>
<rect x="115.694" y="9.50549" width="0.918683" height="0.918683" transform="rotate(90 115.694 9.50549)" fill="#F2F2F2"/>
<rect x="114.775" y="26.0418" width="0.918683" height="0.918683" transform="rotate(90 114.775 26.0418)" fill="#F2F2F2"/>
<rect x="163.465" y="23.2858" width="0.918683" height="0.918683" transform="rotate(90 163.465 23.2858)" fill="#F2F2F2"/>
<rect x="78.9463" y="45.3343" width="0.918683" height="0.918683" transform="rotate(90 78.9463 45.3343)" fill="#F2F2F2"/>
<rect x="65.1663" y="18.6924" width="0.918683" height="0.918683" transform="rotate(90 65.1663 18.6924)" fill="#F2F2F2"/>
<rect x="115.694" y="33.3913" width="0.918683" height="0.918683" transform="rotate(90 115.694 33.3913)" fill="#F2F2F2"/>
<rect x="80.7839" y="19.6112" width="0.918683" height="0.918683" transform="rotate(90 80.7839 19.6112)" fill="#F2F2F2"/>
<rect x="131.311" y="34.31" width="0.918683" height="0.918683" transform="rotate(90 131.311 34.31)" fill="#F2F2F2"/>
<rect x="117.531" y="7.66817" width="0.918683" height="0.918683" transform="rotate(90 117.531 7.66817)" fill="#F2F2F2"/>
<rect x="115.694" y="24.2045" width="0.918683" height="0.918683" transform="rotate(90 115.694 24.2045)" fill="#F2F2F2"/>
<rect x="114.775" y="40.7407" width="0.918683" height="0.918683" transform="rotate(90 114.775 40.7407)" fill="#F2F2F2"/>
<rect x="133.149" y="8.58691" width="0.918683" height="0.918683" transform="rotate(90 133.149 8.58691)" fill="#F2F2F2"/>
<rect x="131.311" y="25.1231" width="0.918683" height="0.918683" transform="rotate(90 131.311 25.1231)" fill="#F2F2F2"/>
<rect x="130.393" y="41.6595" width="0.918683" height="0.918683" transform="rotate(90 130.393 41.6595)" fill="#F2F2F2"/>
<rect x="116.613" y="15.0176" width="0.918683" height="0.918683" transform="rotate(90 116.613 15.0176)" fill="#F2F2F2"/>
<rect x="165.302" y="12.2616" width="0.918683" height="0.918683" transform="rotate(90 165.302 12.2616)" fill="#F2F2F2"/>
<rect x="80.7839" y="34.31" width="0.918683" height="0.918683" transform="rotate(90 80.7839 34.31)" fill="#F2F2F2"/>
<rect x="67.0034" y="7.66817" width="0.918683" height="0.918683" transform="rotate(90 67.0034 7.66817)" fill="#F2F2F2"/>
<rect x="117.531" y="22.3672" width="0.918683" height="0.918683" transform="rotate(90 117.531 22.3672)" fill="#F2F2F2"/>
<rect x="115.694" y="38.9034" width="0.918683" height="0.918683" transform="rotate(90 115.694 38.9034)" fill="#F2F2F2"/>
<rect x="82.6211" y="8.58691" width="0.918683" height="0.918683" transform="rotate(90 82.6211 8.58691)" fill="#F2F2F2"/>
<rect x="133.149" y="23.2858" width="0.918683" height="0.918683" transform="rotate(90 133.149 23.2858)" fill="#F2F2F2"/>
<rect x="131.311" y="39.8221" width="0.918683" height="0.918683" transform="rotate(90 131.311 39.8221)" fill="#F2F2F2"/>
<rect x="117.531" y="13.1803" width="0.918683" height="0.918683" transform="rotate(90 117.531 13.1803)" fill="#F2F2F2"/>
<rect x="116.613" y="29.7165" width="0.918683" height="0.918683" transform="rotate(90 116.613 29.7165)" fill="#F2F2F2"/>
<rect x="133.149" y="14.099" width="0.918683" height="0.918683" transform="rotate(90 133.149 14.099)" fill="#F2F2F2"/>
<rect x="132.23" y="30.6352" width="0.918683" height="0.918683" transform="rotate(90 132.23 30.6352)" fill="#F2F2F2"/>
<rect x="118.45" y="3.99336" width="0.918683" height="0.918683" transform="rotate(90 118.45 3.99336)" fill="#F2F2F2"/>
<rect x="80.7839" y="49.0089" width="0.918683" height="0.918683" transform="rotate(90 80.7839 49.0089)" fill="#F2F2F2"/>
<rect x="67.0034" y="22.3672" width="0.918683" height="0.918683" transform="rotate(90 67.0034 22.3672)" fill="#F2F2F2"/>
<rect x="117.531" y="37.0661" width="0.918683" height="0.918683" transform="rotate(90 117.531 37.0661)" fill="#F2F2F2"/>
<rect x="167.14" y="1.23747" width="0.918683" height="0.918683" transform="rotate(90 167.14 1.23747)" fill="#F2F2F2"/>
<rect x="82.6211" y="23.2858" width="0.918683" height="0.918683" transform="rotate(90 82.6211 23.2858)" fill="#F2F2F2"/>
<rect x="133.149" y="37.9847" width="0.918683" height="0.918683" transform="rotate(90 133.149 37.9847)" fill="#F2F2F2"/>
<rect x="119.369" y="11.343" width="0.918683" height="0.918683" transform="rotate(90 119.369 11.343)" fill="#F2F2F2"/>
<rect x="117.531" y="27.8792" width="0.918683" height="0.918683" transform="rotate(90 117.531 27.8792)" fill="#F2F2F2"/>
<rect x="116.613" y="44.4155" width="0.918683" height="0.918683" transform="rotate(90 116.613 44.4155)" fill="#F2F2F2"/>
<rect x="134.986" y="12.2616" width="0.918683" height="0.918683" transform="rotate(90 134.986 12.2616)" fill="#F2F2F2"/>
<rect x="133.149" y="28.7979" width="0.918683" height="0.918683" transform="rotate(90 133.149 28.7979)" fill="#F2F2F2"/>
<rect x="132.23" y="45.3343" width="0.918683" height="0.918683" transform="rotate(90 132.23 45.3343)" fill="#F2F2F2"/>
<rect x="119.369" y="2.15604" width="0.918683" height="0.918683" transform="rotate(90 119.369 2.15604)" fill="#F2F2F2"/>
<rect x="118.45" y="18.6924" width="0.918683" height="0.918683" transform="rotate(90 118.45 18.6924)" fill="#F2F2F2"/>
<rect x="102.832" y="49.0089" width="0.918683" height="0.918683" transform="rotate(90 102.832 49.0089)" fill="#F2F2F2"/>
<rect x="89.052" y="22.3672" width="0.918683" height="0.918683" transform="rotate(90 89.052 22.3672)" fill="#F2F2F2"/>
<rect x="139.58" y="37.0661" width="0.918683" height="0.918683" transform="rotate(90 139.58 37.0661)" fill="#F2F2F2"/>
<rect x="104.669" y="23.2858" width="0.918683" height="0.918683" transform="rotate(90 104.669 23.2858)" fill="#F2F2F2"/>
<rect x="155.197" y="37.9847" width="0.918683" height="0.918683" transform="rotate(90 155.197 37.9847)" fill="#F2F2F2"/>
<rect x="141.417" y="11.343" width="0.918683" height="0.918683" transform="rotate(90 141.417 11.343)" fill="#F2F2F2"/>
<rect x="139.58" y="27.8792" width="0.918683" height="0.918683" transform="rotate(90 139.58 27.8792)" fill="#F2F2F2"/>
<rect x="138.661" y="44.4155" width="0.918683" height="0.918683" transform="rotate(90 138.661 44.4155)" fill="#F2F2F2"/>
<rect x="70.6782" y="60.0332" width="0.918683" height="0.918683" transform="rotate(90 70.6782 60.0332)" fill="#F2F2F2"/>
<rect x="68.8408" y="76.5694" width="0.918683" height="0.918683" transform="rotate(90 68.8408 76.5694)" fill="#F2F2F2"/>
<rect x="67.9224" y="93.1057" width="0.918683" height="0.918683" transform="rotate(90 67.9224 93.1057)" fill="#F2F2F2"/>
<rect x="157.034" y="12.2616" width="0.918683" height="0.918683" transform="rotate(90 157.034 12.2616)" fill="#F2F2F2"/>
<rect x="155.197" y="28.7979" width="0.918683" height="0.918683" transform="rotate(90 155.197 28.7979)" fill="#F2F2F2"/>
<rect x="154.278" y="45.3343" width="0.918683" height="0.918683" transform="rotate(90 154.278 45.3343)" fill="#F2F2F2"/>
<rect x="141.417" y="2.15604" width="0.918683" height="0.918683" transform="rotate(90 141.417 2.15604)" fill="#F2F2F2"/>
<rect x="140.498" y="18.6924" width="0.918683" height="0.918683" transform="rotate(90 140.498 18.6924)" fill="#F2F2F2"/>
<rect x="124.881" y="34.31" width="0.918683" height="0.918683" transform="rotate(90 124.881 34.31)" fill="#F2F2F2"/>
<rect x="40.3618" y="56.3584" width="0.918683" height="0.918683" transform="rotate(90 40.3618 56.3584)" fill="#F2F2F2"/>
<rect x="90.8894" y="71.0572" width="0.918683" height="0.918683" transform="rotate(90 90.8894 71.0572)" fill="#F2F2F2"/>
<rect x="89.052" y="87.5936" width="0.918683" height="0.918683" transform="rotate(90 89.052 87.5936)" fill="#F2F2F2"/>
<rect x="88.1333" y="104.13" width="0.918683" height="0.918683" transform="rotate(90 88.1333 104.13)" fill="#F2F2F2"/>
<rect x="126.718" y="8.58691" width="0.918683" height="0.918683" transform="rotate(90 126.718 8.58691)" fill="#F2F2F2"/>
<rect x="42.1992" y="30.6352" width="0.918683" height="0.918683" transform="rotate(90 42.1992 30.6352)" fill="#F2F2F2"/>
<rect x="92.7266" y="45.3343" width="0.918683" height="0.918683" transform="rotate(90 92.7266 45.3343)" fill="#F2F2F2"/>
<rect x="90.8894" y="61.8705" width="0.918683" height="0.918683" transform="rotate(90 90.8894 61.8705)" fill="#F2F2F2"/>
<rect x="89.9705" y="78.4067" width="0.918683" height="0.918683" transform="rotate(90 89.9705 78.4067)" fill="#F2F2F2"/>
<rect x="123.043" y="45.3343" width="0.918683" height="0.918683" transform="rotate(90 123.043 45.3343)" fill="#F2F2F2"/>
<rect x="124.881" y="19.6112" width="0.918683" height="0.918683" transform="rotate(90 124.881 19.6112)" fill="#F2F2F2"/>
<rect x="40.3618" y="41.6595" width="0.918683" height="0.918683" transform="rotate(90 40.3618 41.6595)" fill="#F2F2F2"/>
<rect x="90.8894" y="56.3584" width="0.918683" height="0.918683" transform="rotate(90 90.8894 56.3584)" fill="#F2F2F2"/>
<rect x="89.052" y="72.8947" width="0.918683" height="0.918683" transform="rotate(90 89.052 72.8947)" fill="#F2F2F2"/>
<rect x="88.1333" y="89.4309" width="0.918683" height="0.918683" transform="rotate(90 88.1333 89.4309)" fill="#F2F2F2"/>
<rect x="123.043" y="30.6352" width="0.918683" height="0.918683" transform="rotate(90 123.043 30.6352)" fill="#F2F2F2"/>
<rect x="38.5242" y="52.6835" width="0.918683" height="0.918683" transform="rotate(90 38.5242 52.6835)" fill="#F2F2F2"/>
<rect x="89.052" y="67.3826" width="0.918683" height="0.918683" transform="rotate(90 89.052 67.3826)" fill="#F2F2F2"/>
<rect x="87.2146" y="83.9188" width="0.918683" height="0.918683" transform="rotate(90 87.2146 83.9188)" fill="#F2F2F2"/>
<rect x="86.2959" y="100.455" width="0.918683" height="0.918683" transform="rotate(90 86.2959 100.455)" fill="#F2F2F2"/>
<rect x="124.881" y="4.9121" width="0.918683" height="0.918683" transform="rotate(90 124.881 4.9121)" fill="#F2F2F2"/>
<rect x="131.311" y="3.07479" width="2.75605" height="15.6176" fill="#F2F2F2"/>
<rect x="135.905" y="3.07479" width="2.75605" height="15.6176" fill="#F2F2F2"/>
<rect x="140.498" y="3.07479" width="2.75605" height="15.6176" fill="#F2F2F2"/>
<rect x="145.092" y="3.07479" width="2.75605" height="15.6176" fill="#F2F2F2"/>
<rect x="149.685" y="3.07479" width="2.75605" height="15.6176" fill="#F2F2F2"/>
<rect x="161.628" y="3.07479" width="2.75605" height="15.6176" fill="#F2F2F2"/>
<rect x="0.858398" y="3.07479" width="121.266" height="15.6176" fill="#F2F2F2"/>
</svg>
