<svg width="245" height="126" viewBox="0 0 245 126" fill="none" xmlns="http://www.w3.org/2000/svg">
<rect x="48.9578" y="57.8719" width="0.960823" height="67.2576" fill="#F2F2F2"/>
<rect x="74.8999" y="0.222443" width="6.72576" height="7.68659" transform="rotate(90 74.8999 0.222443)" fill="#F2F2F2"/>
<rect x="199.807" y="6.94821" width="7.68659" height="6.72576" transform="rotate(90 199.807 6.94821)" fill="#F2F2F2"/>
<rect x="8.60303" y="6.94821" width="7.68659" height="7.68659" transform="rotate(90 8.60303 6.94821)" fill="#F2F2F2"/>
<rect x="89.3123" y="0.222443" width="6.72576" height="7.68659" transform="rotate(90 89.3123 0.222443)" fill="#F2F2F2"/>
<rect x="215.18" y="6.94821" width="7.68659" height="7.68659" transform="rotate(90 215.18 6.94821)" fill="#F2F2F2"/>
<rect x="23.0154" y="6.94821" width="7.68659" height="7.68659" transform="rotate(90 23.0154 6.94821)" fill="#F2F2F2"/>
<rect x="103.725" y="29.0471" width="7.68659" height="6.72576" transform="rotate(90 103.725 29.0471)" fill="#F2F2F2"/>
<rect x="229.593" y="36.7337" width="7.68659" height="7.68659" transform="rotate(90 229.593 36.7337)" fill="#F2F2F2"/>
<rect x="37.4277" y="36.7337" width="7.68659" height="6.72576" transform="rotate(90 37.4277 36.7337)" fill="#F2F2F2"/>
<rect x="119.098" y="58.8327" width="7.68659" height="7.68659" transform="rotate(90 119.098 58.8327)" fill="#F2F2F2"/>
<rect x="244.005" y="66.5193" width="6.72576" height="6.72576" transform="rotate(90 244.005 66.5193)" fill="#F2F2F2"/>
<rect x="103.725" y="58.8327" width="7.68659" height="6.72576" transform="rotate(90 103.725 58.8327)" fill="#F2F2F2"/>
<rect x="229.593" y="66.5193" width="6.72576" height="7.68659" transform="rotate(90 229.593 66.5193)" fill="#F2F2F2"/>
</svg>
